<?xml version="1.0" encoding="UTF-8" standalone="no"?>
<!DOCTYPE svg PUBLIC "-//W3C//DTD SVG 20010904//EN" "http://www.w3.org/TR/2001/REC-SVG-20010904/DTD/svg10.dtd">
<svg version="1.0" xmlns="http://www.w3.org/2000/svg" width="30" height="30" viewBox="0 0 300 300" preserveAspectRatio="xMidYMid meet">
<g transform="translate(0.000000,300.000000) scale(0.100000,-0.100000)" fill="#000000" stroke="none">
<path d="M1305 2744 c-99 -63 -433 -273 -743 -466 l-562 -353 0 -398 0 -399 22 14 c214 138 1469 918 1478 918 7 0 150 -86 319 -192 332 -208 1148 -719 1169 -732 9 -6 12 75 12 391 l0 398 -177 111 c-98 61 -434 272 -747 468 -313 196 -574 356 -580 355 -6 0 -92 -52 -191 -115z"/>
<path d="M748 1402 l-747 -467 -1 -397 c0 -219 2 -398 4 -398 3 0 83 49 178 109 748 470 1312 821 1318 821 6 0 570 -351 1318 -821 95 -60 175 -109 178 -109 2 0 4 179 4 398 l-1 397 -312 194 c-172 107 -505 316 -742 464 -236 148 -434 271 -440 273 -5 2 -346 -207 -757 -464z"/>
</g>
</svg>