<?xml version="1.0" standalone="no"?>
<!DOCTYPE svg PUBLIC "-//W3C//DTD SVG 20010904//EN" "http://www.w3.org/TR/2001/REC-SVG-20010904/DTD/svg10.dtd">
<svg version="1.0" xmlns="http://www.w3.org/2000/svg" width="30" height="30" viewBox="0 0 980 656" preserveAspectRatio="xMidYMid meet">
  <g id="g3369" transform="matrix(-1,0,0,-1,980,656.5)">
    <g id="g3359" transform="matrix(0.1,0,0,-0.1,0,656)" style="fill:#000000;stroke:none">
      <path id="path3361"
         d="M 2447,4102 0,1655 825,830 1650,5 3275,1630 4900,3255 6525,1630 8150,5 8975,830 9800,1655 7353,4102 C 6006,5449 4903,6550 4900,6550 4897,6550 3794,5449 2447,4102 Z M 7097,3858 C 8303,2652 9290,1660 9290,1655 c 0,-6 -257,-267 -570,-580 L 8150,505 6525,2130 4900,3755 3275,2130 1650,505 1080,1075 c -313,313 -570,574 -570,580 0,10 4380,4395 4390,4395 3,0 992,-987 2197,-2192 z" />
    </g>
  </g>
</svg>
