<?xml version="1.0" standalone="no"?>
<!DOCTYPE svg PUBLIC "-//W3C//DTD SVG 20010904//EN" "http://www.w3.org/TR/2001/REC-SVG-20010904/DTD/svg10.dtd">
<svg version="1.0" xmlns="http://www.w3.org/2000/svg" width="30" height="30" viewBox="0 0 300 300" preserveAspectRatio="xMidYMid meet">
  <g id="g3395" transform="matrix(-1,0,0,-1,300,300.09953)">
    <g id="g3383" transform="matrix(0.1,0,0,-0.1,0,300)" style="fill:#000000;stroke:none">
      <path
         id="path3385"
         d="M 1305,2744 C 1206,2681 872,2471 562,2278 L 0,1925 l 0,-398 0,-399 22,14 c 214,138 1469,918 1478,918 7,0 150,-86 319,-192 332,-208 1148,-719 1169,-732 9,-6 12,75 12,391 l 0,398 -177,111 c -98,61 -434,272 -747,468 -313,196 -574,356 -580,355 -6,0 -92,-52 -191,-115 z" />
      <path
         id="path3387"
         d="M 748,1402 1,935 0,538 C 0,319 2,140 4,140 c 3,0 83,49 178,109 748,470 1312,821 1318,821 6,0 570,-351 1318,-821 95,-60 175,-109 178,-109 2,0 4,179 4,398 l -1,397 -312,194 c -172,107 -505,316 -742,464 -236,148 -434,271 -440,273 -5,2 -346,-207 -757,-464 z" />
    </g>
  </g>
</svg>
