<?xml version="1.0" encoding="UTF-8" standalone="no"?>
<!DOCTYPE svg PUBLIC "-//W3C//DTD SVG 20010904//EN" "http://www.w3.org/TR/2001/REC-SVG-20010904/DTD/svg10.dtd">
<svg version="1.0" xmlns="http://www.w3.org/2000/svg" width="30" height="30" viewBox="0 0 980 980" preserveAspectRatio="xMidYMid meet">

<g transform="translate(0.000000,980.000000) scale(0.100000,-0.100000)" fill="#000000" stroke="none">
<path d="M4560 9789 c-1035 -75 -1998 -463 -2800 -1128 -150 -123 -501 -475
-622 -621 -881 -1068 -1270 -2403 -1098 -3765 117 -921 492 -1781 1098 -2515
122 -148 474 -500 622 -622 734 -606 1594 -981 2515 -1097 1374 -174 2731 227
3790 1118 123 103 397 373 509 501 577 656 962 1433 1130 2280 300 1503 -115
3044 -1130 4200 -112 128 -386 398 -509 501 -763 642 -1665 1026 -2665 1134
-174 19 -664 27 -840 14z m840 -654 c862 -106 1639 -450 2287 -1010 129 -111
352 -335 458 -459 549 -647 885 -1416 992 -2276 26 -207 26 -773 0 -980 -109
-875 -456 -1660 -1023 -2310 -180 -207 -433 -443 -649 -605 -615 -461 -1299
-735 -2075 -832 -208 -26 -773 -25 -980 0 -929 117 -1758 500 -2417 1120 -747
702 -1203 1599 -1328 2617 -26 208 -31 671 -10 890 95 1004 521 1913 1226
2619 621 621 1390 1026 2254 1186 109 20 261 39 460 59 107 10 677 -3 805 -19z"/>
<path d="M4849 6101 c-20 -4 -55 -18 -77 -32 -56 -33 -1536 -1485 -1563 -1532
-30 -54 -36 -145 -14 -203 22 -58 75 -118 129 -147 61 -32 166 -30 229 3 25
14 144 115 264 225 119 110 412 379 650 598 l433 397 650 -597 c394 -362 668
-608 697 -623 63 -33 168 -35 228 -3 119 63 171 192 128 318 -18 54 0 36
-1111 1125 -450 442 -473 461 -567 473 -22 3 -56 2 -76 -2z"/>
</g>
</svg>
