<?xml version="1.0" encoding="UTF-8" standalone="no"?>
<!DOCTYPE svg PUBLIC "-//W3C//DTD SVG 20010904//EN" "http://www.w3.org/TR/2001/REC-SVG-20010904/DTD/svg10.dtd">
<svg version="1.0" xmlns="http://www.w3.org/2000/svg" width="30" height="30" viewBox="0 0 980 980" preserveAspectRatio="xMidYMid meet">
  <g id="g3342" transform="matrix(-1,0,0,-1,979.96922,980.3419)">
    <g id="g4" transform="matrix(0.1,0,0,-0.1,0,980)" style="fill:#000000;stroke:none">
      <path
         id="path6"
         d="M 4560,9789 C 3525,9714 2562,9326 1760,8661 1610,8538 1259,8186 1138,8040 257,6972 -132,5637 40,4275 157,3354 532,2494 1138,1760 1260,1612 1612,1260 1760,1138 2494,532 3354,157 4275,41 c 1374,-174 2731,227 3790,1118 123,103 397,373 509,501 577,656 962,1433 1130,2280 300,1503 -115,3044 -1130,4200 -112,128 -386,398 -509,501 -763,642 -1665,1026 -2665,1134 -174,19 -664,27 -840,14 z m 840,-654 c 862,-106 1639,-450 2287,-1010 129,-111 352,-335 458,-459 549,-647 885,-1416 992,-2276 26,-207 26,-773 0,-980 C 9028,3535 8681,2750 8114,2100 7934,1893 7681,1657 7465,1495 6850,1034 6166,760 5390,663 5182,637 4617,638 4410,663 3481,780 2652,1163 1993,1783 1246,2485 790,3382 665,4400 c -26,208 -31,671 -10,890 95,1004 521,1913 1226,2619 621,621 1390,1026 2254,1186 109,20 261,39 460,59 107,10 677,-3 805,-19 z" />
      <path
         id="path8"
         d="m 4849,6101 c -20,-4 -55,-18 -77,-32 -56,-33 -1536,-1485 -1563,-1532 -30,-54 -36,-145 -14,-203 22,-58 75,-118 129,-147 61,-32 166,-30 229,3 25,14 144,115 264,225 119,110 412,379 650,598 l 433,397 650,-597 c 394,-362 668,-608 697,-623 63,-33 168,-35 228,-3 119,63 171,192 128,318 -18,54 0,36 -1111,1125 -450,442 -473,461 -567,473 -22,3 -56,2 -76,-2 z" />
    </g>
  </g>
</svg>
