<?xml version="1.0" standalone="no"?>
<!DOCTYPE svg PUBLIC "-//W3C//DTD SVG 20010904//EN" "http://www.w3.org/TR/2001/REC-SVG-20010904/DTD/svg10.dtd">
<svg version="1.0" xmlns="http://www.w3.org/2000/svg" width="30" height="30" viewBox="0 0 980 656" preserveAspectRatio="xMidYMid meet">
<g transform="translate(0.000000,656.000000) scale(0.100000,-0.100000)" fill="#000000" stroke="none">
<path d="M2447 4102 l-2447 -2447 825 -825 825 -825 1625 1625 1625 1625 1625
-1625 1625 -1625 825 825 825 825 -2447 2447 c-1347 1347 -2450 2448 -2453
2448 -3 0 -1106 -1101 -2453 -2448z m4650 -244 c1206 -1206 2193 -2198 2193
-2203 0 -6 -257 -267 -570 -580 l-570 -570 -1625 1625 -1625 1625 -1625 -1625
-1625 -1625 -570 570 c-313 313 -570 574 -570 580 0 10 4380 4395 4390 4395 3
0 992 -987 2197 -2192z"/>
</g>
</svg>