<?xml version="1.0" standalone="no"?>
<!DOCTYPE svg PUBLIC "-//W3C//DTD SVG 20010904//EN" "http://www.w3.org/TR/2001/REC-SVG-20010904/DTD/svg10.dtd">
<svg version="1.0" xmlns="http://www.w3.org/2000/svg" width="30" height="30" viewBox="0 0 2048 2048">
  <g id="g3418" transform="matrix(-1,0,0,-1,2048,2112)">
    <path id="path3410"
       d="m 1803,1099 q 0,51 -37,90 l -75,75 q -38,38 -91,38 -54,0 -90,-38 l -294,-293 0,704 q 0,52 -37.5,84.5 -37.5,32.5 -90.5,32.5 l -128,0 q -53,0 -90.5,-32.5 Q 832,1727 832,1675 l 0,-704 -294,293 q -36,38 -90,38 -54,0 -90,-38 l -75,-75 q -38,-38 -38,-90 0,-53 38,-91 L 934,357 q 35,-37 90,-37 54,0 91,37 l 651,651 q 37,39 37,91 z" />
  </g>
</svg>
