<?xml version="1.0" encoding="UTF-8" standalone="no"?>
<!DOCTYPE svg PUBLIC "-//W3C//DTD SVG 20010904//EN" "http://www.w3.org/TR/2001/REC-SVG-20010904/DTD/svg10.dtd">
<svg version="1.0" xmlns="http://www.w3.org/2000/svg" width="30" height="30" viewBox="0 0 2048 2048">
  <path
     d="m 22.980854,1000.7449 q 0,-65.53535 47.5452,-115.65065 l 96.375396,-96.3753 q 48.8302,-48.8303 116.9355,-48.8303 69.3904,0 115.6505,48.8303 l 377.7915,376.50655 0,-904.64375 q 0,-66.8203 48.1877,-108.583 48.1878,-41.7627 116.293,-41.7627 l 164.48075,0 q 68.1053,0 116.293,41.7627 48.1877,41.7627 48.1877,108.583 l 0,904.64375 377.7915,-376.50655 q 46.2602,-48.8303 115.6505,-48.8303 69.3903,0 115.6505,48.8303 l 96.3754,96.3753 q 48.8302,48.8303 48.8302,115.65065 0,68.1053 -48.8302,116.9354 l -836.5385,836.5385 q -44.9752,47.5452 -115.6504,47.5452 -69.39035,0 -116.93555,-47.5452 L 70.526054,1117.6803 q -47.5452,-50.1151 -47.5452,-116.9354 z"
     id="path4"/>
</svg>
