<?xml version="1.0" encoding="UTF-8" standalone="no"?>
<!DOCTYPE svg PUBLIC "-//W3C//DTD SVG 20010904//EN" "http://www.w3.org/TR/2001/REC-SVG-20010904/DTD/svg10.dtd">
<svg version="1.0" xmlns="http://www.w3.org/2000/svg" width="30" height="30" viewBox="0 0 2048 2048">
  <path
     d="m 2025.0192,1111.2552 q 0,65.5353 -47.5452,115.6506 l -96.3754,96.3753 q -48.8302,48.8303 -116.9355,48.8303 -69.3904,0 -115.6505,-48.8303 l -377.7915,-376.50656 0,904.64376 q 0,66.8203 -48.1877,108.583 -48.1878,41.7627 -116.293,41.7627 l -164.48075,0 q -68.10528,0 -116.29297,-41.7627 -48.1877,-41.7627 -48.1877,-108.583 l 0,-904.64376 -377.79157,376.50656 q -46.2602,48.8303 -115.65049,48.8303 -69.39028,0 -115.65048,-48.8303 l -96.375401,-96.3753 q -48.830201,-48.8303 -48.830201,-115.6506 0,-68.1053 48.830201,-116.93541 L 908.34952,157.78126 Q 953.32471,110.23607 1024,110.23607 q 69.3903,0 116.9355,47.54519 l 836.5385,836.53853 q 47.5452,50.11511 47.5452,116.93541 z"
     id="path4"/>
</svg>
